<?xml version="1.0" encoding="utf-8"?>
<!-- Generator: Adobe Illustrator 20.1.0, SVG Export Plug-In . SVG Version: 6.00 Build 0)  -->
<svg version="1.1" id="Layer_1" xmlns="http://www.w3.org/2000/svg" xmlns:xlink="http://www.w3.org/1999/xlink" x="0px" y="0px"
	 viewBox="0 0 100 100" style="enable-background:new 0 0 100 100;" xml:space="preserve">
<style type="text/css">
	.st0{fill:#25A9E1;stroke:#FFFFFF;stroke-width:3;stroke-miterlimit:10;}
	.st1{fill:none;}
	.st2{enable-background:new    ;}
	.st3{fill:#FFFFFF;}
	.st4{fill:#F15B24;stroke:#FFFFFF;stroke-width:3;stroke-miterlimit:10;}
</style>
<circle class="st0" cx="50" cy="50" r="47.1"/>
<rect x="27.3" y="18.2" class="st1" width="45.4" height="23"/>
<g class="st2">
	<path class="st3" d="M39.8,28.1h4.5v3.2h-4.5v9.2h-3.5V18.2h9.3v3.2h-5.8V28.1z"/>
	<path class="st3" d="M54.7,40.6c-0.2-0.6-0.3-0.9-0.3-2.8v-3.5c0-2.1-0.7-2.8-2.3-2.8h-1.2v9.1h-3.5V18.2h5.3
		c3.6,0,5.2,1.7,5.2,5.2v1.8c0,2.3-0.7,3.8-2.3,4.5c1.8,0.7,2.3,2.4,2.3,4.8v3.5c0,1.1,0,1.9,0.4,2.7H54.7z M50.8,21.4v6.9h1.4
		c1.3,0,2.1-0.6,2.1-2.4v-2.2c0-1.6-0.5-2.3-1.8-2.3H50.8z"/>
	<path class="st3" d="M60.2,18.2h3.5v22.4h-3.5V18.2z"/>
</g>
<path class="st4" d="M50,97.1C76,97.1,97.1,76,97.1,50H2.9C2.9,76,24,97.1,50,97.1z"/>
<rect x="15.1" y="58.8" class="st1" width="69.8" height="16.4"/>
<g class="st2">
	<path class="st3" d="M20.4,68.3v1.3c0,1,0.4,1.4,1.1,1.4s1.1-0.4,1.1-1.4v-3.1c0-1-0.4-1.4-1.1-1.4s-1.1,0.4-1.1,1.4V67h-2.1
		l0.4-8.1h5.8v2h-3.8l-0.2,3.3c0.4-0.7,1-1,1.9-1c1.6,0,2.4,1.1,2.4,3.2v3.1c0,2.2-1.1,3.5-3.3,3.5c-2.2,0-3.3-1.3-3.3-3.5v-1.2
		H20.4z"/>
	<path class="st3" d="M33.5,72.8h-2.2l-0.4-2.5h-2.7l-0.4,2.5h-2l2.2-14h3.2L33.5,72.8z M28.4,68.4h2.1l-1.1-7.1L28.4,68.4z"/>
	<path class="st3" d="M39.1,68.8l1.5-9.9h3.1v14h-2.1v-10l-1.5,10H38l-1.6-9.9v9.9h-1.9v-14h3.1L39.1,68.8z"/>
	<path class="st3" d="M48.3,64.8h4v2h-4V64.8z"/>
	<path class="st3" d="M63.4,69.4c0,2.4-1.1,3.6-3.4,3.6c-2.2,0-3.3-1.3-3.3-3.5v-0.4h2.1v0.5c0,1,0.4,1.4,1.1,1.4
		c0.8,0,1.2-0.4,1.2-1.7v-2.6c-0.4,0.8-1.1,1.2-2,1.2c-1.6,0-2.4-1.1-2.4-3.2v-2.6c0-2.2,1.2-3.5,3.3-3.5c2.2,0,3.3,1.3,3.3,3.5
		V69.4z M61.2,64.6v-2.5c0-1-0.4-1.4-1.1-1.4s-1.1,0.4-1.1,1.4v2.5c0,1,0.4,1.4,1.1,1.4S61.2,65.6,61.2,64.6z"/>
	<path class="st3" d="M71.3,62.3v1.8c0,2.2-1.1,3.5-3.3,3.5h-1v5.3h-2.2v-14h3.2C70.3,58.8,71.3,60,71.3,62.3z M67,60.8v4.7h1
		c0.7,0,1.1-0.3,1.1-1.3v-2.1c0-1-0.4-1.3-1.1-1.3H67z"/>
	<path class="st3" d="M77,68.8l1.5-9.9h3.1v14h-2.1v-10l-1.5,10h-2.1l-1.6-9.9v9.9h-1.9v-14h3.1L77,68.8z"/>
</g>
</svg>
