<?xml version="1.0" encoding="utf-8"?>
<!-- Generator: Adobe Illustrator 20.1.0, SVG Export Plug-In . SVG Version: 6.00 Build 0)  -->
<svg version="1.1" id="Layer_1" xmlns="http://www.w3.org/2000/svg" xmlns:xlink="http://www.w3.org/1999/xlink" x="0px" y="0px"
	 viewBox="0 0 100 100" style="enable-background:new 0 0 100 100;" xml:space="preserve">
<style type="text/css">
	.st0{fill:#25A9E1;stroke:#FFFFFF;stroke-width:3;stroke-miterlimit:10;}
	.st1{fill:#FFFFFF;}
	.st2{fill:#F15B24;stroke:#FFFFFF;stroke-width:3;stroke-miterlimit:10;}
</style>
<circle class="st0" cx="50" cy="50" r="47.1"/>
<g>
	<path class="st1" d="M36.8,17.9c3.4,0,5.2,2,5.2,5.6v0.7h-3.3v-0.9c0-1.6-0.6-2.2-1.8-2.2c-1.1,0-1.8,0.6-1.8,2.2
		c0,4.6,6.9,5.5,6.9,11.9c0,3.6-1.8,5.6-5.2,5.6c-3.5,0-5.2-2-5.2-5.6v-1.4h3.3v1.6c0,1.6,0.7,2.2,1.8,2.2c1.1,0,1.8-0.6,1.8-2.2
		c0-4.6-6.9-5.5-6.9-11.9C31.6,20,33.4,17.9,36.8,17.9z"/>
	<path class="st1" d="M47.4,18.2v17.3c0,1.6,0.7,2.2,1.8,2.2c1.1,0,1.8-0.6,1.8-2.2V18.2h3.3v17.1c0,3.6-1.8,5.6-5.2,5.6
		c-3.5,0-5.2-2-5.2-5.6V18.2H47.4z"/>
	<path class="st1" d="M59.9,24.3v16.2h-3.2V18.2h4.4l3.6,13.4V18.2h3.1v22.4h-3.6L59.9,24.3z"/>
</g>
<path class="st2" d="M50,97.1C76,97.1,97.1,76,97.1,50H2.9C2.9,76,24,97.1,50,97.1z"/>
<g>
	<path class="st1" d="M18.3,62.3c0-2.4,1.1-3.6,3.4-3.6c2.2,0,3.3,1.3,3.3,3.5v0.4h-2.1v-0.5c0-1-0.4-1.4-1.1-1.4
		c-0.8,0-1.2,0.4-1.2,1.7V65c0.4-0.8,1.1-1.2,2-1.2c1.6,0,2.4,1.1,2.4,3.2v2.6c0,2.2-1.2,3.5-3.3,3.5c-2.2,0-3.3-1.3-3.3-3.5V62.3z
		 M20.5,67.1v2.5c0,1,0.4,1.4,1.1,1.4s1.1-0.4,1.1-1.4v-2.5c0-1-0.4-1.4-1.1-1.4S20.5,66.1,20.5,67.1z"/>
	<path class="st1" d="M33.5,72.8h-2.2l-0.4-2.5h-2.7l-0.4,2.5h-2l2.2-14h3.2L33.5,72.8z M28.4,68.4h2.1l-1.1-7.1L28.4,68.4z"/>
	<path class="st1" d="M39.1,68.8l1.5-9.9h3.1v14h-2.1v-10l-1.5,10H38l-1.6-9.9v9.9h-1.9v-14h3.1L39.1,68.8z"/>
	<path class="st1" d="M48.3,64.8h4v2h-4V64.8z"/>
	<path class="st1" d="M56.8,62.3c0-2.4,1.1-3.6,3.4-3.6c2.2,0,3.3,1.3,3.3,3.5v0.4h-2.1v-0.5c0-1-0.4-1.4-1.1-1.4
		c-0.8,0-1.2,0.4-1.2,1.7V65c0.4-0.8,1.1-1.2,2-1.2c1.6,0,2.4,1.1,2.4,3.2v2.6c0,2.2-1.2,3.5-3.3,3.5s-3.3-1.3-3.3-3.5V62.3z
		 M59,67.1v2.5c0,1,0.4,1.4,1.1,1.4s1.1-0.4,1.1-1.4v-2.5c0-1-0.4-1.4-1.1-1.4S59,66.1,59,67.1z"/>
	<path class="st1" d="M71.3,62.3v1.8c0,2.2-1.1,3.5-3.3,3.5h-1v5.3h-2.2v-14h3.2C70.3,58.8,71.3,60.1,71.3,62.3z M67,60.8v4.7h1
		c0.7,0,1.1-0.3,1.1-1.3v-2.1c0-1-0.4-1.3-1.1-1.3H67z"/>
	<path class="st1" d="M77,68.8l1.5-9.9h3.1v14h-2.1v-10l-1.5,10h-2.1l-1.6-9.9v9.9h-1.9v-14h3.1L77,68.8z"/>
</g>
</svg>
