<?xml version="1.0" encoding="utf-8"?>
<!-- Generator: Adobe Illustrator 20.1.0, SVG Export Plug-In . SVG Version: 6.00 Build 0)  -->
<svg version="1.1" id="Layer_1" xmlns="http://www.w3.org/2000/svg" xmlns:xlink="http://www.w3.org/1999/xlink" x="0px" y="0px"
	 viewBox="0 0 100 100" style="enable-background:new 0 0 100 100;" xml:space="preserve">
<style type="text/css">
	.st0{fill:#25A9E1;stroke:#FFFFFF;stroke-width:3;stroke-miterlimit:10;}
	.st1{fill:none;}
	.st2{enable-background:new    ;}
	.st3{fill:#FFFFFF;}
	.st4{fill:#F15B24;stroke:#FFFFFF;stroke-width:3;stroke-miterlimit:10;}
</style>
<circle class="st0" cx="50" cy="50" r="47.1"/>
<rect x="27.3" y="18.2" class="st1" width="45.4" height="23"/>
<g class="st2">
	<path class="st3" d="M32.3,18.2h10.9v3.2h-3.7v19.2H36V21.4h-3.7V18.2z"/>
	<path class="st3" d="M48.1,18.2v17.3c0,1.6,0.7,2.2,1.8,2.2c1.1,0,1.8-0.6,1.8-2.2V18.2h3.3v17.1c0,3.6-1.8,5.6-5.2,5.6
		s-5.2-2-5.2-5.6V18.2H48.1z"/>
	<path class="st3" d="M61,27.6h4.8v3.2H61v6.6h6.1v3.2h-9.6V18.2h9.6v3.2H61V27.6z"/>
</g>
<path class="st4" d="M50,97.1C76,97.1,97.1,76,97.1,50H2.9C2.9,76,24,97.1,50,97.1z"/>
<rect x="15.1" y="58.8" class="st1" width="69.8" height="16.4"/>
<g class="st2">
	<path class="st3" d="M17.9,68.3v1.3c0,1,0.4,1.4,1.1,1.4s1.1-0.4,1.1-1.4v-3.1c0-1-0.4-1.4-1.1-1.4s-1.1,0.4-1.1,1.4V67h-2.1
		l0.4-8.1H22v2h-3.8L18,64.2c0.4-0.7,1-1,1.9-1c1.6,0,2.4,1.1,2.4,3.2v3.1c0,2.2-1.1,3.5-3.3,3.5c-2.2,0-3.3-1.3-3.3-3.5v-1.2H17.9z
		"/>
	<path class="st3" d="M31,72.8h-2.2l-0.4-2.5h-2.7l-0.4,2.5h-2l2.2-14h3.2L31,72.8z M25.9,68.4h2.1L27,61.3L25.9,68.4z"/>
	<path class="st3" d="M36.6,68.8l1.5-9.9h3.1v14h-2.1v-10l-1.5,10h-2.1l-1.6-9.9v9.9H32v-14H35L36.6,68.8z"/>
	<path class="st3" d="M45.8,64.8h4v2h-4V64.8z"/>
	<path class="st3" d="M52.7,60.6c1.7,0,2.1-0.8,2.4-1.8h1.5v14h-2.2V62.2h-1.7V60.6z"/>
	<path class="st3" d="M59,62.2c0-2.2,1.2-3.5,3.3-3.5s3.3,1.3,3.3,3.5v7.3c0,2.2-1.2,3.5-3.3,3.5S59,71.7,59,69.5V62.2z M61.2,69.6
		c0,1,0.4,1.4,1.1,1.4s1.1-0.4,1.1-1.4v-7.6c0-1-0.4-1.4-1.1-1.4s-1.1,0.4-1.1,1.4V69.6z"/>
	<path class="st3" d="M73.7,62.3v1.8c0,2.2-1.1,3.5-3.3,3.5h-1v5.3h-2.2v-14h3.2C72.6,58.8,73.7,60,73.7,62.3z M69.3,60.8v4.7h1
		c0.7,0,1.1-0.3,1.1-1.3v-2.1c0-1-0.4-1.3-1.1-1.3H69.3z"/>
	<path class="st3" d="M79.3,68.8l1.5-9.9h3.1v14h-2.1v-10l-1.5,10h-2.1l-1.6-9.9v9.9h-1.9v-14h3.1L79.3,68.8z"/>
</g>
</svg>
